<svg id="visual" viewBox="0 0 900 300" width="900" height="300" xmlns="http://www.w3.org/2000/svg" xmlns:xlink="http://www.w3.org/1999/xlink" version="1.1"><rect x="0" y="0" width="900" height="300" fill="#0f0f10"></rect><path d="M0 191L129 217L257 224L386 182L514 189L643 217L771 221L900 186L900 301L771 301L643 301L514 301L386 301L257 301L129 301L0 301Z" fill="#22ade9"></path><path d="M0 237L129 239L257 196L386 201L514 225L643 233L771 234L900 230L900 301L771 301L643 301L514 301L386 301L257 301L129 301L0 301Z" fill="#0097f3"></path><path d="M0 236L129 245L257 224L386 244L514 226L643 231L771 250L900 220L900 301L771 301L643 301L514 301L386 301L257 301L129 301L0 301Z" fill="#007cf4"></path><path d="M0 270L129 253L257 264L386 262L514 249L643 252L771 257L900 248L900 301L771 301L643 301L514 301L386 301L257 301L129 301L0 301Z" fill="#095bed"></path><path d="M0 280L129 270L257 282L386 269L514 285L643 274L771 272L900 281L900 301L771 301L643 301L514 301L386 301L257 301L129 301L0 301Z" fill="#3c31dd"></path></svg>