<svg id="visual" viewBox="0 0 900 150" width="900" height="150" xmlns="http://www.w3.org/2000/svg" xmlns:xlink="http://www.w3.org/1999/xlink" version="1.1"><rect x="0" y="0" width="900" height="150" fill="#3c31dd"></rect><path d="M0 53L13.7 50.5C27.3 48 54.7 43 82 44.2C109.3 45.3 136.7 52.7 163.8 53.3C191 54 218 48 245.2 47C272.3 46 299.7 50 327 47C354.3 44 381.7 34 409 31.2C436.3 28.3 463.7 32.7 491 37.2C518.3 41.7 545.7 46.3 573 47.8C600.3 49.3 627.7 47.7 654.8 43.5C682 39.3 709 32.7 736.2 31.8C763.3 31 790.7 36 818 41.5C845.3 47 872.7 53 886.3 56L900 59L900 0L886.3 0C872.7 0 845.3 0 818 0C790.7 0 763.3 0 736.2 0C709 0 682 0 654.8 0C627.7 0 600.3 0 573 0C545.7 0 518.3 0 491 0C463.7 0 436.3 0 409 0C381.7 0 354.3 0 327 0C299.7 0 272.3 0 245.2 0C218 0 191 0 163.8 0C136.7 0 109.3 0 82 0C54.7 0 27.3 0 13.7 0L0 0Z" fill="#0f0f10" stroke-linecap="round" stroke-linejoin="miter"></path></svg>