<svg id="visual" viewBox="0 0 900 150" width="900" height="150" xmlns="http://www.w3.org/2000/svg" xmlns:xlink="http://www.w3.org/1999/xlink" version="1.1"><rect x="0" y="0" width="900" height="150" fill="#0f0f10"></rect><path d="M0 92L13.7 92.3C27.3 92.7 54.7 93.3 82 98.8C109.3 104.3 136.7 114.7 163.8 117.8C191 121 218 117 245.2 111.5C272.3 106 299.7 99 327 94.2C354.3 89.3 381.7 86.7 409 89.2C436.3 91.7 463.7 99.3 491 105.7C518.3 112 545.7 117 573 115.5C600.3 114 627.7 106 654.8 100C682 94 709 90 736.2 91.2C763.3 92.3 790.7 98.7 818 105C845.3 111.3 872.7 117.7 886.3 120.8L900 124L900 151L886.3 151C872.7 151 845.3 151 818 151C790.7 151 763.3 151 736.2 151C709 151 682 151 654.8 151C627.7 151 600.3 151 573 151C545.7 151 518.3 151 491 151C463.7 151 436.3 151 409 151C381.7 151 354.3 151 327 151C299.7 151 272.3 151 245.2 151C218 151 191 151 163.8 151C136.7 151 109.3 151 82 151C54.7 151 27.3 151 13.7 151L0 151Z" fill="#3c31dd" stroke-linecap="round" stroke-linejoin="miter"></path></svg>